<svg xmlns="http://www.w3.org/2000/svg" width="220" height="220" viewBox="0 0 220 220"><defs><clipPath id="3lsxa"><path fill="#fff" d="M0 110C0 49.249 49.249 0 110 0s110 49.249 110 110-49.249 110-110 110S0 170.751 0 110z"/></clipPath></defs><g><g><path fill="#212633" d="M10 110C10 54.771 54.771 10 110 10s100 44.771 100 100-44.771 100-100 100S10 165.229 10 110z"/></g><g><path fill="#d2884b" d="M115.06 140s16.45-5.33 24.22-14 9.7-46.88 9.7-46.88S151.01 38 110 38 71.02 79.12 71.02 79.12s1.92 38.21 9.7 46.88c7.78 8.67 24.22 14 24.22 14z"/></g><g><path fill="#b46a2d" d="M99.8 139.44a43.945 43.945 0 0 0 20.4 0l-.5-4.21a44.498 44.498 0 0 1-19.4 0z"/></g><g><path fill="#373f54" d="M42 165c0-7.5 7.5-15 15-15h100c7.5 0 15 7.5 15 15v30c0 7.5-7.5 15-15 15H57c-7.5 0-15-7.5-15-15z"/></g><g><path fill="#babf1c" d="M93 150v7.88L110 172l17-14.12V150l-5-4v8l-12 10-12-10v-8z"/></g><g><path fill="#d2884b" d="M98 130v24l12 10 12-10v-24z"/></g><g><path fill="#b46a2d" d="M98 137.28v4c3.99 1.76 6.94 2.72 6.94 2.72h10.12s2.95-.96 6.94-2.72v-4c-3.99 1.76-6.94 2.72-6.94 2.72h-10.12s-2.95-.96-6.94-2.72z"/></g><g><path fill="#d2884b" d="M62 80l13-3 6 22-13 3z"/></g><g><path fill="#d2884b" d="M158 80l-13-3-6 22 13 3z"/></g><g><path fill="#deb330" d="M73 96l5-4-2-31 54-9 14 9-2 31 5 4 6-48-5.84-6.1L149 29.25l-10.38 3.74L130 24 67 48z"/></g><g><path fill="#fff" d="M87 87a6 6 0 1 1 12 0 6 6 0 0 1-12 0z"/></g><g><path d="M90 87a3 3 0 1 1 6 .001A3 3 0 0 1 90 87z"/></g><g><path fill="#c94d40" d="M86 79v-4h14v4z"/></g><g><path fill="#fff" d="M121 87a6 6 0 1 1 12 0 6 6 0 0 1-12 0z"/></g><g><path d="M124 87a3 3 0 1 1 6 0 3 3 0 0 1-6 0z"/></g><g><path fill="#c94d40" d="M120 79v-4h14v4z"/></g><g><path fill="#fff" d="M87 87a6 6 0 1 1 12 0 6 6 0 0 1-12 0z"/></g><g><path fill="#deb330" d="M86 79v-4h14v4z"/></g><g><path fill="#fff" d="M121 87a6 6 0 1 1 12 0 6 6 0 0 1-12 0z"/></g><g><path fill="#deb330" d="M120 79v-4h14v4z"/></g><g><path d="M89 87a4 4 0 1 1 8 0 4 4 0 0 1-8 0z"/></g><g><path d="M123 87a4 4 0 1 1 8 0 4 4 0 0 1-8 0z"/></g><g><path fill="none" stroke="#212633" stroke-linecap="round" stroke-linejoin="round" stroke-miterlimit="50" stroke-width="2" d="M0 110C0 49.249 49.249 0 110 0s110 49.249 110 110-49.249 110-110 110S0 170.751 0 110z" clip-path="url(&quot;#3lsxa&quot;)"/></g></g></svg>