<svg xmlns="http://www.w3.org/2000/svg" width="30" height="24" viewBox="0 0 30 24"><g><g><g><path fill="#373f54" d="M12 2zm0 0h6l-1.427 10h-3.125zm6 12l2-14H10l2 14h6z"/></g><g><path fill="#373f54" d="M28 18v1.818C27.93 19.84 20.932 22 15 22 9.044 22 2.067 19.84 2 19.818V18zm2 3v-5H0v5c.075.03 7.585 3 15 3 7.28 0 14.685-2.875 15-3z"/></g><g><path fill="#373f54" d="M29 16c0-3.74-1.456-7.256-4.1-9.9a13.866 13.866 0 0 0-5.296-3.33l-.289 2.025a11.918 11.918 0 0 1 4.17 2.72A11.931 11.931 0 0 1 27.002 16H29zM3 16c0-3.205 1.248-6.219 3.515-8.486a11.917 11.917 0 0 1 4.17-2.719l-.29-2.024A13.867 13.867 0 0 0 5.1 6.101 13.912 13.912 0 0 0 1 16h1.999z"/></g><g><path fill="#373f54" d="M7.566 13.1L6.453 5.178l1.98-.278 1.114 7.922z"/></g><g><path fill="#373f54" d="M20.453 12.822L21.566 4.9l1.981.278-1.113 7.922z"/></g></g></g></svg>