<svg xmlns="http://www.w3.org/2000/svg" width="53" height="54" viewBox="0 0 53 54"><g><g><g><g><path fill="#babf1c" d="M21.267 54a2.583 2.583 0 0 1-2.584-2.583v-11.41L8.801 45.71a2.583 2.583 0 0 1-2.584-4.475l10.721-6.19a4.561 4.561 0 0 1 4.608 0 4.561 4.561 0 0 1 2.305 3.991v12.38A2.584 2.584 0 0 1 21.267 54z"/></g></g><g><g><path fill="#babf1c" d="M31.117 54a2.583 2.583 0 0 1-2.584-2.584v-12.43a4.56 4.56 0 0 1 2.312-3.996 4.56 4.56 0 0 1 4.615.013l10.715 6.238a2.583 2.583 0 1 1-2.6 4.466L33.7 39.958v11.458A2.584 2.584 0 0 1 31.117 54z"/></g></g><g><g><path fill="#373f54" d="M49.798 37.527c-.439 0-.883-.111-1.29-.346l-10.721-6.19A4.56 4.56 0 0 1 35.483 27c0-1.666.862-3.159 2.304-3.992l10.72-6.19a2.583 2.583 0 1 1 2.584 4.476L41.21 27l9.881 5.706a2.583 2.583 0 0 1-1.293 4.821z"/></g></g><g><g><path fill="#babf1c" d="M33.141 19.579a4.598 4.598 0 0 1-2.303-.625 4.561 4.561 0 0 1-2.305-3.991V2.583a2.583 2.583 0 1 1 5.168 0v11.412l9.882-5.706a2.583 2.583 0 1 1 2.583 4.475l-10.72 6.19a4.601 4.601 0 0 1-2.305.625z"/></g></g><g><g><path fill="#babf1c" d="M19.243 19.579a4.599 4.599 0 0 1-2.305-.625l-10.721-6.19a2.584 2.584 0 0 1 2.584-4.475l9.882 5.706V2.583a2.583 2.583 0 1 1 5.168 0v12.38a4.561 4.561 0 0 1-2.305 3.99 4.598 4.598 0 0 1-2.303.626z"/></g></g><g><g><path fill="#babf1c" d="M12.015 27.485h-.002M2.586 37.527a2.584 2.584 0 0 1-1.294-4.822L11.174 27l-9.882-5.705a2.584 2.584 0 0 1 2.584-4.475l10.721 6.19A4.562 4.562 0 0 1 16.901 27a4.563 4.563 0 0 1-2.304 3.991l-10.72 6.19a2.574 2.574 0 0 1-1.29.346z"/></g></g></g></g></svg>