<svg xmlns="http://www.w3.org/2000/svg" width="50" height="64" viewBox="0 0 50 64">
    <defs>
        <style>
            .cls-1{fill:#373f54}
        </style>
    </defs>
    <g id="medal" transform="translate(-53.334)">
        <g id="Grupo_243" data-name="Grupo 243" transform="translate(53.334)">
            <g id="Grupo_242" data-name="Grupo 242">
                <path id="Caminho_168" d="M130.306 44a1.325 1.325 0 0 0-1.316-1.333 18.463 18.463 0 0 0-17.829 13.954 1.335 1.335 0 0 0 .942 1.626 1.292 1.292 0 0 0 .332.043 1.319 1.319 0 0 0 1.273-1 15.825 15.825 0 0 1 15.282-11.955A1.324 1.324 0 0 0 130.306 44z" class="cls-1" data-name="Caminho 168" transform="translate(-103.99 -37.334)"/>
                <path id="Caminho_169" d="M108.056 175.125a1.325 1.325 0 0 0-1.372 1.273c-.012.276-.018.557-.018.835a1.316 1.316 0 1 0 2.632 0c0-.239.005-.48.016-.717a1.327 1.327 0 0 0-1.258-1.391z" class="cls-1" data-name="Caminho 169" transform="translate(-100.086 -153.233)"/>
                <path id="Caminho_170" d="M263.535 216.385a1.313 1.313 0 0 0-1.6.955 15.824 15.824 0 0 1-15.282 11.96 1.333 1.333 0 0 0 0 2.667 18.463 18.463 0 0 0 17.829-13.955 1.335 1.335 0 0 0-.947-1.627z" class="cls-1" data-name="Caminho 170" transform="translate(-221.648 -189.299)"/>
                <path id="Caminho_171" d="M385.12 184.777h.059a1.324 1.324 0 0 0 1.313-1.275c.012-.276.018-.557.018-.835a1.316 1.316 0 1 0-2.632 0c0 .238-.005.48-.016.717a1.327 1.327 0 0 0 1.258 1.393z" class="cls-1" data-name="Caminho 171" transform="translate(-343.089 -158.669)"/>
                <path id="Caminho_173" d="M103.158 53.466L95.673 40.33A23.83 23.83 0 1 0 54.65 24 24.083 24.083 0 0 0 61 40.33l-7.49 13.136a1.348 1.348 0 0 0 .1 1.478 1.307 1.307 0 0 0 1.384.476l10.233-2.778 2.742 10.369a1.321 1.321 0 0 0 1.1.977 1.262 1.262 0 0 0 .172.012 1.313 1.313 0 0 0 1.14-.668l7.951-13.982 7.966 13.983a1.31 1.31 0 0 0 2.41-.322l2.742-10.369 10.233 2.778a1.307 1.307 0 0 0 1.384-.476 1.348 1.348 0 0 0 .091-1.478zm-33.475 5.743l-2.259-8.544a1.314 1.314 0 0 0-1.611-.943l-8.435 2.29 5.572-9.78a23.43 23.43 0 0 0 13.168 5.662zM57.282 24a21.054 21.054 0 1 1 21.052 21.333A21.218 21.218 0 0 1 57.282 24zm33.573 25.722a1.314 1.314 0 0 0-1.612.943l-2.26 8.547-6.447-11.317a23.429 23.429 0 0 0 13.182-5.663l5.572 9.78z" class="cls-1" data-name="Caminho 173" transform="translate(-53.334)"/>
            </g>
        </g>
        <path id="Caminho_176" d="M81.862 79.352l-7.5 7.688-3.2-3.281a1.527 1.527 0 0 0-2.2 0 1.621 1.621 0 0 0 0 2.253l4.3 4.407a1.527 1.527 0 0 0 2.2 0l8.6-8.814a1.621 1.621 0 0 0 0-2.253 1.527 1.527 0 0 0-2.2 0z" class="cls-1" data-name="Caminho 176" transform="translate(1.825 -59.886)"/>
    </g>
</svg>
