<svg xmlns="http://www.w3.org/2000/svg" xmlns:xlink="http://www.w3.org/1999/xlink" width="40" height="40" viewBox="0 0 40 40">
  <defs>
    <clipPath id="clip-_">
      <rect width="40" height="40"/>
    </clipPath>
  </defs>
  <g id="_" data-name="+" clip-path="url(#clip-_)">
    <rect width="40" height="40" fill="#fff"/>
    <path id="União_4" data-name="União 4" d="M-1284.728,30.728A17.883,17.883,0,0,1-1290,18a17.883,17.883,0,0,1,5.271-12.728A17.881,17.881,0,0,1-1272,0a17.881,17.881,0,0,1,12.728,5.272A17.883,17.883,0,0,1-1254,18a17.883,17.883,0,0,1-5.272,12.728A17.881,17.881,0,0,1-1272,36,17.881,17.881,0,0,1-1284.728,30.728ZM-1288,18a16.018,16.018,0,0,0,16,16,16.018,16.018,0,0,0,16-16,16.018,16.018,0,0,0-16-16A16.018,16.018,0,0,0-1288,18Zm15,9V19h-8V17h8V9h2v8h8v2h-8v8Z" transform="translate(1292 2)" fill="#babf1c"/>
  </g>
</svg>
