<?xml version="1.0" encoding="UTF-8" standalone="no"?>
<svg
   xmlns:dc="http://purl.org/dc/elements/1.1/"
   xmlns:cc="http://creativecommons.org/ns#"
   xmlns:rdf="http://www.w3.org/1999/02/22-rdf-syntax-ns#"
   xmlns:svg="http://www.w3.org/2000/svg"
   xmlns="http://www.w3.org/2000/svg"
   xmlns:sodipodi="http://sodipodi.sourceforge.net/DTD/sodipodi-0.dtd"
   xmlns:inkscape="http://www.inkscape.org/namespaces/inkscape"
   width="40"
   height="40"
   viewBox="0 0 40 40"
   version="1.1"
   id="svg16"
   sodipodi:docname="EPI verde.svg"
   inkscape:version="0.92.4 (5da689c313, 2019-01-14)">
  <metadata
     id="metadata20">
    <rdf:RDF>
      <cc:Work
         rdf:about="">
        <dc:format>image/svg+xml</dc:format>
        <dc:type
           rdf:resource="http://purl.org/dc/dcmitype/StillImage" />
      </cc:Work>
    </rdf:RDF>
  </metadata>
  <sodipodi:namedview
     pagecolor="#ffffff"
     bordercolor="#666666"
     borderopacity="1"
     objecttolerance="10"
     gridtolerance="10"
     guidetolerance="10"
     inkscape:pageopacity="0"
     inkscape:pageshadow="2"
     inkscape:window-width="1440"
     inkscape:window-height="847"
     id="namedview18"
     showgrid="false"
     inkscape:zoom="5.9"
     inkscape:cx="20"
     inkscape:cy="20"
     inkscape:window-x="-8"
     inkscape:window-y="-8"
     inkscape:window-maximized="1"
     inkscape:current-layer="svg16" />
  <defs
     id="defs5">
    <clipPath
       id="clip-EPI">
      <rect
         width="40"
         height="40"
         id="rect2" />
    </clipPath>
  </defs>
  <g
     transform="translate(-161.50847,-558.33898)"
     data-name="Grupo 270"
     id="Grupo_270">
    <path
       style="fill:#babf1c"
       inkscape:connector-curvature="0"
       transform="translate(176,566)"
       d="M 8,14 H 2 L 0,0 H 10 Z M 2,2 3.448,12 H 6.573 L 8,2 Z"
       data-name="Subtração 5"
       id="Subtração_5" />
    <path
       style="fill:#babf1c"
       inkscape:connector-curvature="0"
       transform="translate(166,582)"
       d="M 15,8 A 46.857,46.857 0 0 1 0,5 V 0 H 30 V 5 A 46.937,46.937 0 0 1 15,8 Z M 2,2 V 3.818 A 52.069,52.069 0 0 0 15,6 52.305,52.305 0 0 0 28,3.818 V 2 Z"
       data-name="Subtração 10"
       id="Subtração_10" />
    <path
       style="fill:#babf1c"
       inkscape:connector-curvature="0"
       transform="translate(167,566)"
       d="M 2,16 H 0 A 14.025,14.025 0 0 1 9.4,2.771 L 9.685,4.8 A 12.027,12.027 0 0 0 2,16 Z m 26,0 H 26 A 12.027,12.027 0 0 0 18.315,4.8 L 18.6,2.771 A 14.026,14.026 0 0 1 28,16 Z"
       data-name="Subtração 9"
       id="Subtração_9" />
    <rect
       style="fill:#babf1c"
       y="0"
       x="0"
       transform="rotate(-8,4170.3395,-947.5074)"
       height="8"
       width="2"
       data-name="Retângulo 12"
       id="Retângulo_12" />
    <rect
       style="fill:#babf1c"
       y="0"
       x="0"
       transform="rotate(8,-3988.3422,1626.6094)"
       height="8"
       width="2"
       data-name="Retângulo 13"
       id="Retângulo_13" />
  </g>
</svg>
