<?xml version="1.0" encoding="UTF-8" standalone="no"?>
<svg
   xmlns:dc="http://purl.org/dc/elements/1.1/"
   xmlns:cc="http://creativecommons.org/ns#"
   xmlns:rdf="http://www.w3.org/1999/02/22-rdf-syntax-ns#"
   xmlns:svg="http://www.w3.org/2000/svg"
   xmlns="http://www.w3.org/2000/svg"
   xmlns:sodipodi="http://sodipodi.sourceforge.net/DTD/sodipodi-0.dtd"
   xmlns:inkscape="http://www.inkscape.org/namespaces/inkscape"
   width="80"
   height="80"
   viewBox="0 0 80 80"
   version="1.1"
   id="svg18"
   sodipodi:docname="formulário azul.svg"
   inkscape:version="0.92.4 (5da689c313, 2019-01-14)">
  <metadata
     id="metadata22">
    <rdf:RDF>
      <cc:Work
         rdf:about="">
        <dc:format>image/svg+xml</dc:format>
        <dc:type
           rdf:resource="http://purl.org/dc/dcmitype/StillImage" />
      </cc:Work>
    </rdf:RDF>
  </metadata>
  <sodipodi:namedview
     pagecolor="#ffffff"
     bordercolor="#666666"
     borderopacity="1"
     objecttolerance="10"
     gridtolerance="10"
     guidetolerance="10"
     inkscape:pageopacity="0"
     inkscape:pageshadow="2"
     inkscape:window-width="1440"
     inkscape:window-height="847"
     id="namedview20"
     showgrid="false"
     inkscape:zoom="2.95"
     inkscape:cx="40"
     inkscape:cy="40"
     inkscape:window-x="-8"
     inkscape:window-y="-8"
     inkscape:window-maximized="1"
     inkscape:current-layer="svg18" />
  <defs
     id="defs5">
    <clipPath
       id="clip-formulário_azul">
      <rect
         width="80"
         height="80"
         id="rect2" />
    </clipPath>
  </defs>
  <g
     transform="translate(-220.33898,-144.30509)"
     data-name="Grupo 241"
     id="Grupo_241">
    <path
       style="fill:#373f54;fill-rule:evenodd"
       inkscape:connector-curvature="0"
       transform="translate(209.5,135.01)"
       d="m 30.5,26.99 a 5,5 0 0 0 -5,5 v 46 a 5,5 0 0 0 5,5 h 40 a 5,5 0 0 0 5,-5 v -46 a 5,5 0 0 0 -5,-5 h -7 v -4 h -8.1 a 5,5 0 0 0 -9.8,0 h -8.1 v 4 z m 30,3 a 2.006,2.006 0 0 1 -2,2 h -16 a 2.006,2.006 0 0 1 -2,-2 v -4 h 8 v -2 a 2,2 0 0 1 4,0 v 2 h 8 z m 3,0 h 5.92 a 3.081,3.081 0 0 1 3.08,3.08 v 43.84 a 3.081,3.081 0 0 1 -3.08,3.08 H 31.58 A 3.081,3.081 0 0 1 28.5,76.91 V 33.07 a 3.081,3.081 0 0 1 3.08,-3.08 h 5.92 a 5,5 0 0 0 5,5 h 16 a 5,5 0 0 0 5,-5 z"
       data-name="Caminho 146"
       id="Caminho_146" />
    <rect
       style="fill:#373f54"
       y="0"
       x="0"
       transform="translate(253,179)"
       height="2"
       width="24"
       data-name="Retângulo 100"
       id="Retângulo_100" />
    <circle
       style="fill:#373f54"
       transform="translate(243,178)"
       r="2"
       cy="2"
       cx="2"
       data-name="Elipse 34"
       id="Elipse_34" />
    <rect
       style="fill:#373f54"
       y="0"
       x="0"
       transform="translate(253,191)"
       height="2"
       width="24"
       data-name="Retângulo 101"
       id="Retângulo_101" />
    <path
       style="fill:#373f54"
       inkscape:connector-curvature="0"
       transform="translate(243,190)"
       d="M 2,0 A 2,2 0 1 1 0,2 2,2 0 0 1 2,0 Z"
       data-name="Caminho 164"
       id="Caminho_164" />
    <rect
       style="fill:#373f54"
       y="0"
       x="0"
       transform="translate(253,203)"
       height="2"
       width="24"
       data-name="Retângulo 102"
       id="Retângulo_102" />
    <circle
       style="fill:#373f54"
       transform="translate(243,202)"
       r="2"
       cy="2"
       cx="2"
       data-name="Elipse 36"
       id="Elipse_36" />
  </g>
</svg>
