<svg xmlns="http://www.w3.org/2000/svg" xmlns:xlink="http://www.w3.org/1999/xlink" width="80" height="80" viewBox="0 0 80 80">
  <defs>
    <clipPath id="clip-fórum_azul">
      <rect width="80" height="80"/>
    </clipPath>
  </defs>
  <g id="fórum_azul" data-name="fórum azul" clip-path="url(#clip-fórum_azul)">
    <rect width="80" height="80" fill="#fff"/>
    <g id="chat_Convertido_" data-name="chat [Convertido]" transform="translate(8 14)">
      <path id="Caminho_165" data-name="Caminho 165" d="M80.4,80.5A3.4,3.4,0,0,0,77,83.834v27.2a3.4,3.4,0,0,0,3.4,3.467h2.667v10L93,114.5h10v-3H92l-6,6v-6H82a1.96,1.96,0,0,1-1.96-1.96V85.447A1.96,1.96,0,0,1,82,83.487h40.08a1.96,1.96,0,0,1,1.96,1.96V98.5h3V83.833a3.4,3.4,0,0,0-3.373-3.333Z" transform="translate(-77 -80.5)" fill="#373f54" fill-rule="evenodd"/>
      <path id="Caminho_166" data-name="Caminho 166" d="M130.586,95.5A3.4,3.4,0,0,1,134,98.85v17.2a3.4,3.4,0,0,1-3.4,3.4h-2.667v10.067l-9.987-10H101.4A3.4,3.4,0,0,1,98,116.1V98.85a3.4,3.4,0,0,1,3.4-3.4Zm-1.56,21a1.96,1.96,0,0,0,1.96-1.96v-14.08a1.96,1.96,0,0,0-1.96-1.96H102.96a1.96,1.96,0,0,0-1.96,1.96v14.08a1.96,1.96,0,0,0,1.96,1.96h16l5.987,6v-6Z" transform="translate(-70 -75.517)" fill="#373f54" fill-rule="evenodd"/>
      <rect id="Retângulo_103" data-name="Retângulo 103" width="34" height="2" transform="translate(8 11.987)" fill="#373f54"/>
      <rect id="Retângulo_104" data-name="Retângulo 104" width="18" height="2" transform="translate(8 19.986)" fill="#373f54"/>
      <circle id="Elipse_37" data-name="Elipse 37" cx="2" cy="2" r="2" transform="translate(36 29.986)" fill="#373f54"/>
      <circle id="Elipse_38" data-name="Elipse 38" cx="2" cy="2" r="2" transform="translate(44 29.986)" fill="#373f54"/>
      <path id="Caminho_167" data-name="Caminho 167" d="M116,104.99a2,2,0,1,1,1.987,2A2,2,0,0,1,116,104.99Z" transform="translate(-64 -73.004)" fill="#373f54" fill-rule="evenodd"/>
    </g>
  </g>
</svg>
