<svg xmlns="http://www.w3.org/2000/svg" width="285" height="60" viewBox="0 0 285 60"><g><g><g><g><g><path fill="#fff" d="M86.045 38.477c-4.679 0-7.42-3.476-7.42-8.623 0-5.213 2.741-8.623 7.42-8.623 4.678 0 7.352 3.41 7.352 8.623 0 5.147-2.674 8.623-7.352 8.623zm-17.379-8.623c0 10.495 7.219 16.91 17.312 16.91s17.445-6.75 17.445-16.91c0-10.36-7.218-16.978-17.312-16.978-10.093 0-17.445 6.752-17.445 16.978z"/></g></g><g><g><path fill="#fff" d="M138.944 26.445v19.25c-1.67.268-3.341.401-5.013.401-1.67 0-3.342-.133-5.012-.4V28.05c0-4.546-2.474-6.15-6.016-6.15-2.34 0-4.21.669-5.347 1.337v22.459a31.72 31.72 0 0 1-5.013.4c-1.672 0-3.276-.133-4.947-.4V18.157c2.473-2.206 8.155-5.28 16.042-5.28 10.561 0 15.306 5.748 15.306 13.568z"/></g></g><g><g><path fill="#fff" d="M144.621 45.696v-31.75c1.605-.268 3.275-.401 4.947-.401 1.604 0 3.275.133 5.012.4v31.75c-1.604.268-3.274.401-5.012.401-1.605 0-3.276-.133-4.947-.4z"/></g></g><g><g><path fill="#fff" d="M158.9 42.821c.534-3.141 2.005-5.48 3.944-6.684 2.339 1.47 5.614 3.209 10.427 3.209 3.074 0 4.144-1.137 4.144-2.54 0-1.671-1.671-2.54-6.885-3.476-5.213-1.07-10.694-2.94-10.694-9.96 0-6.55 6.016-10.293 13.97-10.293 6.617 0 10.694 1.537 12.9 2.94-.4 3.21-1.672 5.549-3.476 6.952-2.138-1.203-5.681-2.34-9.29-2.34-3.142 0-4.613.67-4.613 2.274s1.404 2.206 6.417 3.141c6.283 1.07 11.563 3.142 11.563 10.027 0 6.617-5.079 10.761-14.37 10.761-7.153 0-11.965-2.273-14.037-4.01z"/></g></g><g><g><path fill="#fff" d="M223.522 14.614c-2.74 20.253-10.494 35.159-24.799 45.386-3.074-1.07-5.08-4.01-5.95-6.885 3.544-2.807 6.685-5.681 8.691-8.422-6.484-10.026-9.425-18.715-11.898-30.145 1.404-.335 4.479-.736 7.286-.736 1.203 0 2.606.067 3.743.2 1.203 7.354 3.41 15.24 6.15 21.59.333.736.534 1.337.668 1.805a9.745 9.745 0 0 1 .535-1.805c2.74-6.416 4.277-14.236 5.213-21.59 1.27-.133 2.674-.2 3.944-.2 2.339 0 4.612.334 6.417.802z"/></g></g><g><g><path fill="#fff" d="M223.695 42.821c.535-3.141 2.005-5.48 3.943-6.684 2.34 1.47 5.615 3.209 10.427 3.209 3.076 0 4.145-1.137 4.145-2.54 0-1.671-1.672-2.54-6.884-3.476-5.215-1.07-10.695-2.94-10.695-9.96 0-6.55 6.015-10.293 13.97-10.293 6.617 0 10.694 1.537 12.9 2.94-.401 3.21-1.671 5.549-3.475 6.952-2.14-1.203-5.683-2.34-9.292-2.34-3.141 0-4.612.67-4.612 2.274s1.403 2.206 6.416 3.141c6.284 1.07 11.565 3.142 11.565 10.027 0 6.617-5.08 10.761-14.371 10.761-7.152 0-11.965-2.273-14.037-4.01z"/></g></g></g><g><g><path fill="#fff" d="M279.36 30.355h.002m-10.414 11.093c.484 0 .975-.124 1.424-.383l11.84-6.837a5.036 5.036 0 0 0 2.546-4.407c0-1.84-.951-3.488-2.545-4.408l-11.84-6.836a2.853 2.853 0 1 0-2.855 4.942l10.914 6.302-10.914 6.301a2.853 2.853 0 0 0 1.43 5.326z"/></g></g><g><g><g><path fill="#babf1c" d="M23.488 59.641a2.853 2.853 0 0 1-2.853-2.853V44.186l-10.914 6.3a2.853 2.853 0 0 1-2.855-4.942l11.842-6.836a5.038 5.038 0 0 1 5.09 0 5.038 5.038 0 0 1 2.544 4.408v13.672a2.853 2.853 0 0 1-2.854 2.853z"/></g></g><g><g><path fill="#babf1c" d="M34.367 59.641a2.853 2.853 0 0 1-2.853-2.853v-13.73c0-1.844.954-3.493 2.553-4.412a5.036 5.036 0 0 1 5.098.014l11.834 6.89a2.853 2.853 0 1 1-2.872 4.932l-10.905-6.35v12.656a2.853 2.853 0 0 1-2.855 2.853z"/></g></g><g><g><path fill="#fff" d="M55 41.448c-.484 0-.975-.124-1.425-.383l-11.84-6.837a5.037 5.037 0 0 1-2.545-4.407c0-1.84.951-3.488 2.544-4.408l11.841-6.836a2.853 2.853 0 1 1 2.854 4.942l-10.914 6.302 10.914 6.301A2.853 2.853 0 0 1 55 41.448z"/></g></g><g><g><path fill="#babf1c" d="M36.604 21.624c-.874 0-1.748-.23-2.545-.69a5.038 5.038 0 0 1-2.545-4.408V2.853a2.853 2.853 0 1 1 5.708 0v12.604l10.914-6.302a2.853 2.853 0 1 1 2.853 4.943l-11.84 6.836c-.797.46-1.672.69-2.545.69z"/></g></g><g><g><path fill="#babf1c" d="M21.253 21.624a5.08 5.08 0 0 1-2.545-.69L6.866 14.098a2.854 2.854 0 0 1 2.855-4.943l10.914 6.302V2.853a2.853 2.853 0 1 1 5.707 0v13.673c0 1.84-.951 3.488-2.545 4.408-.797.46-1.67.69-2.544.69z"/></g></g><g><g><path fill="#babf1c" d="M13.268 30.356h.003M2.857 41.448c.484 0 .975-.124 1.424-.383l11.841-6.836a5.04 5.04 0 0 0 2.545-4.408c0-1.84-.952-3.488-2.545-4.408L4.281 18.577a2.853 2.853 0 1 0-2.854 4.942l10.915 6.302-10.915 6.301a2.854 2.854 0 0 0 1.43 5.326z"/></g></g></g></g></g></svg>