<svg xmlns="http://www.w3.org/2000/svg" xmlns:xlink="http://www.w3.org/1999/xlink" width="40" height="40" viewBox="0 0 40 40">
  <defs>
    <clipPath id="clip-_8_Avatar_2">
      <rect width="40" height="40"/>
    </clipPath>
  </defs>
  <g id="_8_Avatar_2" data-name="8 Avatar – 2" clip-path="url(#clip-_8_Avatar_2)">
    <rect width="40" height="40" fill="#fff"/>
    <g id="Grupo_268" data-name="Grupo 268" transform="translate(-25 -564.032)">
      <g id="Path" transform="translate(0 -3.968)" fill="none" stroke-linecap="round" stroke-linejoin="round">
        <path d="M54,600v-5.7a6.3,6.3,0,0,0-3.355-5.57,6.507,6.507,0,0,1-11.29,0A6.3,6.3,0,0,0,36,594.3l0,5.7Z" stroke="none"/>
        <path d="M 51.99990081787109 598 L 51.99990081787109 594.2999877929688 C 51.99990081787109 593.2509765625 51.62081909179688 592.2620849609375 50.95988845825195 591.4947509765625 C 49.33154296875 593.0896606445313 47.21330261230469 594 45 594 C 42.78659820556641 594 40.66827392578125 593.089599609375 39.0399055480957 591.4947509765625 C 38.37900161743164 592.261962890625 38 593.2503662109375 38 594.29833984375 L 38.00311660766602 598 L 51.99990081787109 598 M 53.99990081787109 600 L 36.00479888916016 600 L 36 594.2999877929688 C 36 591.8848266601563 37.35980224609375 589.7872924804688 39.35490036010742 588.72998046875 C 40.62879943847656 590.7128295898438 42.68260192871094 592 45 592 C 47.31729888916016 592 49.37100219726563 590.7128295898438 50.64490127563477 588.72998046875 C 52.63999938964844 589.7872924804688 53.99990081787109 591.8848266601563 53.99990081787109 594.2999877929688 L 53.99990081787109 600 Z" stroke="none" fill="#babf1c"/>
      </g>
      <g id="Ellipse" transform="translate(38 573.032)" fill="none" stroke="#babf1c" stroke-linecap="round" stroke-linejoin="round" stroke-width="2">
        <ellipse cx="7" cy="6" rx="7" ry="6" stroke="none"/>
        <ellipse cx="7" cy="6" rx="6" ry="5" fill="none"/>
      </g>
    </g>
  </g>
</svg>
