<?xml version="1.0" encoding="UTF-8" standalone="no"?>
<svg
   xmlns:dc="http://purl.org/dc/elements/1.1/"
   xmlns:cc="http://creativecommons.org/ns#"
   xmlns:rdf="http://www.w3.org/1999/02/22-rdf-syntax-ns#"
   xmlns:svg="http://www.w3.org/2000/svg"
   xmlns="http://www.w3.org/2000/svg"
   xmlns:sodipodi="http://sodipodi.sourceforge.net/DTD/sodipodi-0.dtd"
   xmlns:inkscape="http://www.inkscape.org/namespaces/inkscape"
   width="40"
   height="40"
   viewBox="0 0 40 40"
   version="1.1"
   id="svg21"
   sodipodi:docname="perfil azul.svg"
   inkscape:version="0.92.4 (5da689c313, 2019-01-14)">
  <metadata
     id="metadata25">
    <rdf:RDF>
      <cc:Work
         rdf:about="">
        <dc:format>image/svg+xml</dc:format>
        <dc:type
           rdf:resource="http://purl.org/dc/dcmitype/StillImage" />
      </cc:Work>
    </rdf:RDF>
  </metadata>
  <sodipodi:namedview
     pagecolor="#ffffff"
     bordercolor="#666666"
     borderopacity="1"
     objecttolerance="10"
     gridtolerance="10"
     guidetolerance="10"
     inkscape:pageopacity="0"
     inkscape:pageshadow="2"
     inkscape:window-width="1440"
     inkscape:window-height="847"
     id="namedview23"
     showgrid="false"
     inkscape:zoom="5.9"
     inkscape:cx="20"
     inkscape:cy="20"
     inkscape:window-x="-8"
     inkscape:window-y="-8"
     inkscape:window-maximized="1"
     inkscape:current-layer="svg21" />
  <defs
     id="defs5">
    <clipPath
       id="clip-_8_Avatar_1">
      <rect
         width="40"
         height="40"
         id="rect2" />
    </clipPath>
  </defs>
  <g
     transform="translate(-24.830509,-564.37098)"
     data-name="Grupo 268"
     id="Grupo_268">
    <g
       style="fill:none;stroke-linecap:round;stroke-linejoin:round"
       transform="translate(0,-3.968)"
       id="Path">
      <path
         style="stroke:none"
         inkscape:connector-curvature="0"
         id="path9"
         d="m 54,600 v -5.7 a 6.3,6.3 0 0 0 -3.355,-5.57 6.507,6.507 0 0 1 -11.29,0 A 6.3,6.3 0 0 0 36,594.3 v 5.7 z" />
      <path
         style="fill:#373f54;stroke:none"
         inkscape:connector-curvature="0"
         id="path11"
         d="m 51.999901,598 v -3.70001 c 0,-1.04901 -0.379082,-2.03791 -1.040013,-2.80524 C 49.331543,593.08966 47.213303,594 45,594 42.786598,594 40.668274,593.0896 39.039906,591.49475 38.379002,592.26196 38,593.25037 38,594.29834 L 38.003117,598 h 13.996784 m 2,2 H 36.004799 L 36,594.29999 c 0,-2.41516 1.359802,-4.5127 3.3549,-5.57001 C 40.628799,590.71283 42.682602,592 45,592 c 2.317299,0 4.371002,-1.28717 5.644901,-3.27002 1.995098,1.05731 3.355,3.15485 3.355,5.57001 z" />
    </g>
    <g
       style="fill:none;stroke:#373f54;stroke-width:2;stroke-linecap:round;stroke-linejoin:round"
       transform="translate(38,573.032)"
       id="Ellipse">
      <ellipse
         style="stroke:none"
         id="ellipse14"
         ry="6"
         rx="7"
         cy="6"
         cx="7" />
      <ellipse
         style="fill:none"
         id="ellipse16"
         ry="5"
         rx="6"
         cy="6"
         cx="7" />
    </g>
  </g>
</svg>
