<svg xmlns="http://www.w3.org/2000/svg" xmlns:xlink="http://www.w3.org/1999/xlink" width="80" height="80" viewBox="0 0 80 80">
  <defs>
    <clipPath id="clip-qualificação_azul">
      <rect width="80" height="80"/>
    </clipPath>
  </defs>
  <g id="qualificação_azul" data-name="qualificação azul" clip-path="url(#clip-qualificação_azul)">
    <rect width="80" height="80" fill="#fff"/>
    <g id="medal" transform="translate(-38.334 8)">
      <g id="Grupo_243" data-name="Grupo 243" transform="translate(53.334)">
        <g id="Grupo_242" data-name="Grupo 242" transform="translate(0)">
          <path id="Caminho_168" data-name="Caminho 168" d="M130.306,44a1.325,1.325,0,0,0-1.316-1.333,18.463,18.463,0,0,0-17.829,13.954,1.335,1.335,0,0,0,.942,1.626,1.292,1.292,0,0,0,.332.043,1.319,1.319,0,0,0,1.273-1A15.825,15.825,0,0,1,128.99,45.335,1.324,1.324,0,0,0,130.306,44Z" transform="translate(-103.99 -37.334)" fill="#373f54"/>
          <path id="Caminho_169" data-name="Caminho 169" d="M108.056,175.125a1.325,1.325,0,0,0-1.372,1.273c-.012.276-.018.557-.018.835a1.316,1.316,0,1,0,2.632,0c0-.239.005-.48.016-.717A1.327,1.327,0,0,0,108.056,175.125Z" transform="translate(-100.086 -153.233)" fill="#373f54"/>
          <path id="Caminho_170" data-name="Caminho 170" d="M263.535,216.385a1.313,1.313,0,0,0-1.6.955,15.824,15.824,0,0,1-15.282,11.96,1.333,1.333,0,0,0,0,2.667,18.463,18.463,0,0,0,17.829-13.955A1.335,1.335,0,0,0,263.535,216.385Z" transform="translate(-221.648 -189.299)" fill="#373f54"/>
          <path id="Caminho_171" data-name="Caminho 171" d="M385.12,184.777h.059a1.324,1.324,0,0,0,1.313-1.275c.012-.276.018-.557.018-.835a1.316,1.316,0,1,0-2.632,0c0,.238-.005.48-.016.717A1.327,1.327,0,0,0,385.12,184.777Z" transform="translate(-343.089 -158.669)" fill="#373f54"/>
          <path id="Caminho_173" data-name="Caminho 173" d="M103.158,53.466,95.673,40.33A23.83,23.83,0,1,0,54.65,24,24.083,24.083,0,0,0,61,40.33L53.51,53.466a1.348,1.348,0,0,0,.1,1.478,1.307,1.307,0,0,0,1.384.476l10.233-2.778,2.742,10.369a1.321,1.321,0,0,0,1.1.977,1.262,1.262,0,0,0,.172.012,1.313,1.313,0,0,0,1.14-.668l7.951-13.982,7.966,13.983a1.31,1.31,0,0,0,2.41-.322l2.742-10.369,10.233,2.778a1.307,1.307,0,0,0,1.384-.476A1.348,1.348,0,0,0,103.158,53.466ZM69.683,59.209l-2.259-8.544a1.314,1.314,0,0,0-1.611-.943l-8.435,2.29,5.572-9.78a23.43,23.43,0,0,0,13.168,5.662ZM57.282,24A21.054,21.054,0,1,1,78.334,45.333,21.218,21.218,0,0,1,57.282,24ZM90.855,49.722a1.314,1.314,0,0,0-1.612.943l-2.26,8.547L80.536,47.895a23.429,23.429,0,0,0,13.182-5.663l5.572,9.78Z" transform="translate(-53.334)" fill="#373f54"/>
        </g>
      </g>
      <path id="Caminho_176" data-name="Caminho 176" d="M81.862,79.352l-7.5,7.688-3.2-3.281a1.527,1.527,0,0,0-2.2,0,1.621,1.621,0,0,0,0,2.253l4.3,4.407a1.527,1.527,0,0,0,2.2,0l8.6-8.814a1.621,1.621,0,0,0,0-2.253A1.527,1.527,0,0,0,81.862,79.352Z" transform="translate(1.825 -59.886)" fill="#373f54"/>
    </g>
  </g>
</svg>
