<svg xmlns="http://www.w3.org/2000/svg" xmlns:xlink="http://www.w3.org/1999/xlink" width="80" height="80" viewBox="0 0 80 80">
  <defs>
    <clipPath id="clip-regras_verde">
      <rect width="80" height="80"/>
    </clipPath>
  </defs>
  <g id="regras_verde" data-name="regras verde" clip-path="url(#clip-regras_verde)">
    <rect width="80" height="80" fill="#fff"/>
    <g id="security" transform="translate(2.88 14)">
      <g id="Grupo_244" data-name="Grupo 244" transform="translate(13.12 -2)">
        <path id="Caminho_174" data-name="Caminho 174" d="M61.144,11.9c-.024-1.458-.048-2.835-.048-4.168a1.79,1.79,0,0,0-1.669-1.89c-7.139,0-16.579-2.323-21.11-7.311a1.533,1.533,0,0,0-2.328,0c-4.53,4.988-13.97,7.311-21.108,7.311a1.79,1.79,0,0,0-1.669,1.89c0,1.333-.023,2.71-.048,4.169C12.934,25.473,16.625,46.055,36.606,53.9a1.484,1.484,0,0,0,1.093,0C57.681,46.054,61.373,25.472,61.144,11.9ZM37.153,50.1C20.017,43.056,16.272,25.616,16.5,11.977c.014-.819.027-1.612.037-2.39,6.686-.32,16.038-2.614,20.615-7.128,4.578,4.515,13.93,6.809,20.617,7.128.009.777.023,1.57.036,2.388C58.035,25.616,54.29,43.056,37.153,50.1Z" transform="translate(-13.153 2)" fill="#babf1c"/>
        <path id="Caminho_175" data-name="Caminho 175" d="M81.862,79.352l-7.5,7.688-3.2-3.281a1.527,1.527,0,0,0-2.2,0,1.621,1.621,0,0,0,0,2.253l4.3,4.407a1.527,1.527,0,0,0,2.2,0l8.6-8.814a1.621,1.621,0,0,0,0-2.253A1.527,1.527,0,0,0,81.862,79.352Z" transform="translate(-52.512 -55.886)" fill="#babf1c"/>
      </g>
    </g>
  </g>
</svg>
