<svg xmlns="http://www.w3.org/2000/svg" width="24" height="23" viewBox="0 0 24 23"><g><g><g><path fill="#373f54" d="M0 2.55A2.55 2.55 0 0 1 2.55 0h18.9A2.55 2.55 0 0 1 24 2.55v11.9A2.55 2.55 0 0 1 21.45 17H16l-4 6-4-6H2.55A2.55 2.55 0 0 1 0 14.45zm2 .75v10.4A1.3 1.3 0 0 0 3.3 15h6.035L12 19l2.665-4H20.7a1.3 1.3 0 0 0 1.3-1.3V3.3A1.3 1.3 0 0 0 20.7 2H3.3A1.3 1.3 0 0 0 2 3.3z"/></g><g><path fill="#373f54" d="M7 10V8h2v2z"/></g><g><path fill="#373f54" d="M11 10V8h2v2z"/></g><g><path fill="#373f54" d="M15 10V8h2v2z"/></g></g></g></svg>