<?xml version="1.0" encoding="UTF-8" standalone="no"?>
<svg
   xmlns:dc="http://purl.org/dc/elements/1.1/"
   xmlns:cc="http://creativecommons.org/ns#"
   xmlns:rdf="http://www.w3.org/1999/02/22-rdf-syntax-ns#"
   xmlns:svg="http://www.w3.org/2000/svg"
   xmlns="http://www.w3.org/2000/svg"
   xmlns:sodipodi="http://sodipodi.sourceforge.net/DTD/sodipodi-0.dtd"
   xmlns:inkscape="http://www.inkscape.org/namespaces/inkscape"
   width="40"
   height="40"
   viewBox="0 0 40 40"
   version="1.1"
   id="svg15"
   sodipodi:docname="report_verde.svg"
   inkscape:version="0.92.4 (5da689c313, 2019-01-14)">
  <metadata
     id="metadata19">
    <rdf:RDF>
      <cc:Work
         rdf:about="">
        <dc:format>image/svg+xml</dc:format>
        <dc:type
           rdf:resource="http://purl.org/dc/dcmitype/StillImage" />
      </cc:Work>
    </rdf:RDF>
  </metadata>
  <sodipodi:namedview
     pagecolor="#ffffff"
     bordercolor="#666666"
     borderopacity="1"
     objecttolerance="10"
     gridtolerance="10"
     guidetolerance="10"
     inkscape:pageopacity="0"
     inkscape:pageshadow="2"
     inkscape:window-width="1440"
     inkscape:window-height="847"
     id="namedview17"
     showgrid="false"
     inkscape:zoom="5.9"
     inkscape:cx="20"
     inkscape:cy="20"
     inkscape:window-x="-8"
     inkscape:window-y="-8"
     inkscape:window-maximized="1"
     inkscape:current-layer="svg15" />
  <defs
     id="defs5">
    <clipPath
       id="clip-report_2">
      <rect
         width="40"
         height="40"
         id="rect2" />
    </clipPath>
  </defs>
  <g
     transform="translate(-107.16949,-565.20149)"
     data-name="Grupo 269"
     id="Grupo_269">
    <path
       style="fill:#babf1c"
       inkscape:connector-curvature="0"
       transform="translate(-8,-2.968)"
       d="m 126.3,579 h 17.4 a 1.3,1.3 0 0 1 1.3,1.3 v 10.4 a 1.3,1.3 0 0 1 -1.3,1.3 h -6.035 l -2.665,4 -2.665,-4 H 126.3 a 1.3,1.3 0 0 1 -1.3,-1.3 v -10.4 a 1.3,1.3 0 0 1 1.3,-1.3 z m -3.3,12.45 a 2.55,2.55 0 0 0 2.55,2.55 H 131 l 4,6 4,-6 h 5.45 a 2.55,2.55 0 0 0 2.55,-2.55 v -11.9 A 2.55,2.55 0 0 0 144.45,577 h -18.9 a 2.55,2.55 0 0 0 -2.55,2.55 z"
       data-name="Composite Path"
       id="Composite_Path" />
    <rect
       style="fill:#babf1c"
       y="0"
       x="0"
       transform="translate(122,582.032)"
       height="2"
       width="2"
       id="Path" />
    <rect
       style="fill:#babf1c"
       y="0"
       x="0"
       transform="translate(126,582.032)"
       height="2"
       width="2"
       data-name="Path"
       id="Path-2" />
    <rect
       style="fill:#babf1c"
       y="0"
       x="0"
       transform="translate(130,582.032)"
       height="2"
       width="2"
       data-name="Path"
       id="Path-3" />
  </g>
</svg>
