<svg xmlns="http://www.w3.org/2000/svg" xmlns:xlink="http://www.w3.org/1999/xlink" width="60" height="60" viewBox="0 0 60 60">
  <defs>
    <clipPath id="clip-upload_de_arquivo_verde">
      <rect width="60" height="60"/>
    </clipPath>
  </defs>
  <g id="upload_de_arquivo_verde" data-name="upload de arquivo verde" clip-path="url(#clip-upload_de_arquivo_verde)">
    <rect width="60" height="60" fill="#fff"/>
    <g id="up-arrow" transform="translate(-2 -2)">
      <path id="Caminho_15" data-name="Caminho 15" d="M23.414,21.414,30,14.828V44a2,2,0,0,0,4,0V14.828l6.586,6.586a2,2,0,0,0,2.828-2.828l-10-10a2,2,0,0,0-2.828,0l-10,10a2,2,0,1,0,2.828,2.828Z" fill="#babf1c"/>
      <path id="Caminho_16" data-name="Caminho 16" d="M50,40a2,2,0,0,0-2,2v8a2,2,0,0,1-2,2H18a2,2,0,0,1-2-2V42a2,2,0,0,0-4,0v8a6.006,6.006,0,0,0,6,6H46a6.006,6.006,0,0,0,6-6V42A2,2,0,0,0,50,40Z" fill="#babf1c"/>
    </g>
  </g>
</svg>
