<?xml version="1.0" encoding="UTF-8" standalone="no"?>
<svg
   xmlns:dc="http://purl.org/dc/elements/1.1/"
   xmlns:cc="http://creativecommons.org/ns#"
   xmlns:rdf="http://www.w3.org/1999/02/22-rdf-syntax-ns#"
   xmlns:svg="http://www.w3.org/2000/svg"
   xmlns="http://www.w3.org/2000/svg"
   xmlns:sodipodi="http://sodipodi.sourceforge.net/DTD/sodipodi-0.dtd"
   xmlns:inkscape="http://www.inkscape.org/namespaces/inkscape"
   width="60"
   height="60"
   viewBox="0 0 60 60"
   version="1.1"
   id="svg13"
   sodipodi:docname="upload de arquivo azul.svg"
   inkscape:version="0.92.4 (5da689c313, 2019-01-14)">
  <metadata
     id="metadata17">
    <rdf:RDF>
      <cc:Work
         rdf:about="">
        <dc:format>image/svg+xml</dc:format>
        <dc:type
           rdf:resource="http://purl.org/dc/dcmitype/StillImage" />
      </cc:Work>
    </rdf:RDF>
  </metadata>
  <sodipodi:namedview
     pagecolor="#ffffff"
     bordercolor="#666666"
     borderopacity="1"
     objecttolerance="10"
     gridtolerance="10"
     guidetolerance="10"
     inkscape:pageopacity="0"
     inkscape:pageshadow="2"
     inkscape:window-width="1440"
     inkscape:window-height="847"
     id="namedview15"
     showgrid="false"
     inkscape:zoom="3.9333333"
     inkscape:cx="30"
     inkscape:cy="30"
     inkscape:window-x="-8"
     inkscape:window-y="-8"
     inkscape:window-maximized="1"
     inkscape:current-layer="svg13" />
  <defs
     id="defs5">
    <clipPath
       id="clip-upload_de_arquivo">
      <rect
         width="60"
         height="60"
         id="rect2" />
    </clipPath>
  </defs>
  <g
     transform="translate(-2.5084749,-0.98305085)"
     id="up-arrow">
    <path
       style="fill:#afb2bb"
       inkscape:connector-curvature="0"
       d="M 23.414,21.414 30,14.828 V 44 a 2,2 0 0 0 4,0 V 14.828 l 6.586,6.586 a 2,2 0 0 0 2.828,-2.828 l -10,-10 a 2,2 0 0 0 -2.828,0 l -10,10 a 2,2 0 1 0 2.828,2.828 z"
       data-name="Caminho 15"
       id="Caminho_15" />
    <path
       style="fill:#afb2bb"
       inkscape:connector-curvature="0"
       d="m 50,40 a 2,2 0 0 0 -2,2 v 8 a 2,2 0 0 1 -2,2 H 18 a 2,2 0 0 1 -2,-2 v -8 a 2,2 0 0 0 -4,0 v 8 a 6.006,6.006 0 0 0 6,6 h 28 a 6.006,6.006 0 0 0 6,-6 v -8 a 2,2 0 0 0 -2,-2 z"
       data-name="Caminho 16"
       id="Caminho_16" />
  </g>
</svg>
