<svg xmlns="http://www.w3.org/2000/svg" width="18" height="23" viewBox="0 0 18 23"><defs><clipPath id="jov4a"><path fill="#fff" d="M18 23v-5.7a6.3 6.3 0 0 0-3.355-5.57C13.37 13.713 11.317 15 9 15c-2.317 0-4.371-1.287-5.645-3.27A6.3 6.3 0 0 0 0 17.3L.005 23z"/></clipPath><clipPath id="jov4b"><path fill="#fff" d="M2 6c0-3.314 3.134-6 7-6s7 2.686 7 6-3.134 6-7 6-7-2.686-7-6z"/></clipPath></defs><g><g><g><path fill="none" stroke="#babf1c" stroke-linecap="round" stroke-linejoin="round" stroke-miterlimit="50" stroke-width="4" d="M18 23v0-5.7a6.3 6.3 0 0 0-3.355-5.57C13.37 13.713 11.317 15 9 15c-2.317 0-4.371-1.287-5.645-3.27A6.3 6.3 0 0 0 0 17.3L.005 23v0z" clip-path="url(&quot;#jov4a&quot;)"/></g><g><path fill="none" stroke="#babf1c" stroke-linecap="round" stroke-linejoin="round" stroke-miterlimit="50" stroke-width="4" d="M2 6c0-3.314 3.134-6 7-6s7 2.686 7 6-3.134 6-7 6-7-2.686-7-6z" clip-path="url(&quot;#jov4b&quot;)"/></g></g></g></svg>